<svg width="20" height="19" viewBox="0 0 20 19" fill="none" xmlns="http://www.w3.org/2000/svg">
<path d="M8.08594 12.6445V0.9375H12.1875V12.6445C12.1875 13.7852 11.9258 14.7734 11.4023 15.6094C10.8867 16.4453 10.1836 17.0938 9.29297 17.5547C8.41016 18.0078 7.41797 18.2344 6.31641 18.2344C5.17578 18.2344 4.16016 18.043 3.26953 17.6602C2.38672 17.2773 1.69141 16.6875 1.18359 15.8906C0.683594 15.0938 0.433594 14.0781 0.433594 12.8438H4.55859C4.55859 13.4219 4.625 13.875 4.75781 14.2031C4.89062 14.5234 5.08594 14.75 5.34375 14.8828C5.60938 15.0078 5.93359 15.0703 6.31641 15.0703C6.69141 15.0703 7.00781 14.9766 7.26562 14.7891C7.53125 14.5938 7.73438 14.3164 7.875 13.957C8.01562 13.5898 8.08594 13.1523 8.08594 12.6445ZM14.8711 16.1484C14.8711 15.5859 15.0742 15.1172 15.4805 14.7422C15.8867 14.3594 16.4102 14.168 17.0508 14.168C17.6992 14.168 18.2227 14.3594 18.6211 14.7422C19.0273 15.1172 19.2305 15.5859 19.2305 16.1484C19.2305 16.7109 19.0273 17.1836 18.6211 17.5664C18.2227 17.9414 17.6992 18.1289 17.0508 18.1289C16.4102 18.1289 15.8867 17.9414 15.4805 17.5664C15.0742 17.1836 14.8711 16.7109 14.8711 16.1484Z" fill="#550089"/>
</svg>
